<svg width="222" height="157" viewBox="0 0 222 157" fill="none" xmlns="http://www.w3.org/2000/svg">
<path d="M40.2781 10.6085H35.9175L35.3147 6.7101C34.7386 6.13405 34.0085 5.67857 33.1243 5.34365C32.2536 5.00874 31.222 4.84128 30.0297 4.84128C27.4844 4.84128 25.5218 5.76565 24.142 7.61437C22.7755 9.46309 22.0923 11.8745 22.0923 14.8485V15.8733C22.0923 18.8474 22.7755 21.2655 24.142 23.1276C25.5084 24.9897 27.4375 25.9208 29.9293 25.9208C31.0814 25.9208 32.133 25.7533 33.0842 25.4184C34.0487 25.0835 34.7922 24.628 35.3147 24.0519L35.9175 20.1535H40.2781V25.9408C39.0992 27.3073 37.5921 28.3991 35.7568 29.2163C33.9348 30.0201 31.8919 30.422 29.6278 30.422C25.7027 30.422 22.4875 29.0622 19.9823 26.3427C17.4772 23.6232 16.2246 20.1334 16.2246 15.8733V14.8887C16.2246 10.642 17.4705 7.15219 19.9622 4.41929C22.454 1.6864 25.6759 0.319949 29.6278 0.319949C31.8919 0.319949 33.9348 0.735242 35.7568 1.56583C37.5787 2.38302 39.0858 3.46814 40.2781 4.82119V10.6085ZM43.5736 11.7941V8.2574H55.088V11.7941L52.556 12.3969V17.0589H59.7098V12.3969L57.1979 11.7941V8.2574H59.7098H65.5775H68.7123V11.7941L65.5775 12.3969V25.8806L68.7123 26.4834V30H57.1979V26.4834L59.7098 25.8806V21.5602H52.556V25.8806L55.088 26.4834V30H43.5736V26.4834L46.7084 25.8806V12.3969L43.5736 11.7941ZM83.8437 8.2574V11.7941L81.0304 12.3969V21.4597L81.151 21.4798L88.2243 8.2574H94.092H97.2067V11.7941L94.092 12.3969V25.8806L97.2067 26.4834V30H85.4111V26.4834L88.2243 25.8806V16.7776L88.1038 16.7575L81.0304 30H72.0279V26.4834L75.1627 25.8806V12.3969L72.0279 11.7941V8.2574H81.0304H83.8437ZM116.578 23.1678H116.699L122.285 8.2574H129.64H132.754V11.7941L129.64 12.3969V25.8806L132.754 26.4834V30H121.562V26.4834L123.772 25.8806V17.0589L123.652 17.0388L118.608 30H114.669L109.746 17.28L109.625 17.3001V25.8806L111.856 26.4834V30H100.643V26.4834L103.778 25.8806V12.3969L100.643 11.7941V8.2574H103.778H111.032L116.578 23.1678ZM149.373 30C149.212 29.6383 149.071 29.2699 148.951 28.8948C148.83 28.5063 148.737 28.1178 148.67 27.7293C147.973 28.5331 147.122 29.1828 146.118 29.6785C145.126 30.1742 143.987 30.422 142.701 30.422C140.571 30.422 138.877 29.8459 137.617 28.6938C136.372 27.5283 135.749 25.9475 135.749 23.9515C135.749 21.9152 136.566 20.3411 138.2 19.2292C139.835 18.1173 142.233 17.5613 145.394 17.5613H148.388V15.4313C148.388 14.3863 148.087 13.5758 147.484 12.9998C146.881 12.4237 145.99 12.1357 144.811 12.1357C144.142 12.1357 143.545 12.2161 143.023 12.3768C142.5 12.5242 142.078 12.7051 141.757 12.9194L141.375 15.2504H136.954L136.974 10.4276C138.046 9.70423 139.272 9.09469 140.652 8.59902C142.045 8.10334 143.559 7.85551 145.193 7.85551C147.886 7.85551 150.069 8.51864 151.744 9.84489C153.432 11.1578 154.276 13.0333 154.276 15.4714V24.4538C154.276 24.7887 154.276 25.1036 154.276 25.3983C154.289 25.693 154.316 25.9743 154.356 26.2423L156.145 26.4834V30H149.373ZM144.289 26.0815C145.173 26.0815 145.977 25.894 146.7 25.5189C147.424 25.1304 147.986 24.6481 148.388 24.072V20.7564H145.394C144.148 20.7564 143.204 21.0511 142.561 21.6406C141.918 22.2166 141.596 22.9132 141.596 23.7304C141.596 24.4672 141.831 25.0433 142.3 25.4586C142.782 25.8739 143.445 26.0815 144.289 26.0815ZM180.379 8.2574V15.6724H175.878L175.637 12.7385H171.919V25.8806L175.034 26.4834V30H162.917V26.4834L166.031 25.8806V12.7385H162.394L162.173 15.6724H157.672V8.2574H180.379ZM192.396 8.2574V15.2705H196.475C199.422 15.2705 201.727 15.9336 203.388 17.2599C205.062 18.5727 205.9 20.3277 205.9 22.5247C205.9 24.7753 205.062 26.5839 203.388 27.9503C201.713 29.3168 199.409 30 196.475 30H183.393V26.4834L186.528 25.8806V12.3969L183.393 11.7941V8.2574H186.528H192.396ZM192.396 19.5105V25.5189H196.475C197.681 25.5189 198.578 25.2509 199.168 24.7151C199.757 24.1658 200.052 23.4491 200.052 22.5649C200.052 21.654 199.757 20.9171 199.168 20.3545C198.592 19.7918 197.694 19.5105 196.475 19.5105H192.396ZM195.531 8.2574V11.7941L192.396 12.3969V8.2574H195.531Z" fill="white"/>
<path d="M41.9739 58.7144C44.8676 58.7144 47.1182 59.2235 48.7258 60.2416C50.3468 61.2598 51.1573 62.7736 51.1573 64.7831C51.1573 65.8012 50.8156 66.7055 50.1324 67.4959C49.4626 68.2863 48.5047 68.8891 47.2589 69.3044C48.9066 69.6259 50.1525 70.2355 50.9965 71.133C51.8539 72.0172 52.2826 73.0554 52.2826 74.2477C52.2826 76.2974 51.5123 77.8447 49.9717 78.8896C48.4445 79.9346 46.2474 80.457 43.3806 80.457H29.7563V76.9404L32.8911 76.3376V62.854L29.7563 62.2511V58.7144H32.8911H41.9739ZM38.7387 71.3943V75.996H43.3806C44.4121 75.996 45.1757 75.8084 45.6714 75.4333C46.167 75.0448 46.4149 74.4755 46.4149 73.7253C46.4149 72.9751 46.1737 72.399 45.6915 71.9971C45.2226 71.5952 44.4523 71.3943 43.3806 71.3943H38.7387ZM38.7387 67.5763H42.2954C43.327 67.5629 44.0839 67.382 44.5662 67.0337C45.0484 66.6854 45.2896 66.1696 45.2896 65.4864C45.2896 64.696 45.0149 64.1199 44.4657 63.7582C43.9164 63.3831 43.0858 63.1956 41.9739 63.1956H38.7387V67.5763ZM54.9552 69.3848C54.9552 66.1428 55.8594 63.4903 57.668 61.4272C59.4899 59.3508 62.0018 58.3125 65.2035 58.3125C68.4187 58.3125 70.9306 59.3441 72.7391 61.4071C74.561 63.4702 75.472 66.1294 75.472 69.3848V69.8068C75.472 73.0755 74.561 75.7414 72.7391 77.8045C70.9306 79.8542 68.4321 80.879 65.2437 80.879C62.0152 80.879 59.4899 79.8542 57.668 77.8045C55.8594 75.7414 54.9552 73.0755 54.9552 69.8068V69.3848ZM60.8229 69.8068C60.8229 71.7895 61.1712 73.3837 61.8678 74.5893C62.5644 75.7816 63.6897 76.3778 65.2437 76.3778C66.7575 76.3778 67.8628 75.7749 68.5594 74.5692C69.2694 73.3636 69.6244 71.7761 69.6244 69.8068V69.3848C69.6244 67.4557 69.2694 65.8816 68.5594 64.6625C67.8494 63.4434 66.7307 62.8339 65.2035 62.8339C63.6763 62.8339 62.5644 63.4434 61.8678 64.6625C61.1712 65.8816 60.8229 67.4557 60.8229 69.3848V69.8068ZM90.8043 58.7144C93.698 58.7144 95.9486 59.2235 97.5562 60.2416C99.1772 61.2598 99.9877 62.7736 99.9877 64.7831C99.9877 65.8012 99.6461 66.7055 98.9628 67.4959C98.293 68.2863 97.3352 68.8891 96.0893 69.3044C97.7371 69.6259 98.9829 70.2355 99.8269 71.133C100.684 72.0172 101.113 73.0554 101.113 74.2477C101.113 76.2974 100.343 77.8447 98.8021 78.8896C97.2749 79.9346 95.0778 80.457 92.211 80.457H78.5867V76.9404L81.7215 76.3376V62.854L78.5867 62.2511V58.7144H81.7215H90.8043ZM87.5691 71.3943V75.996H92.211C93.2425 75.996 94.0061 75.8084 94.5018 75.4333C94.9975 75.0448 95.2453 74.4755 95.2453 73.7253C95.2453 72.9751 95.0042 72.399 94.5219 71.9971C94.053 71.5952 93.2827 71.3943 92.211 71.3943H87.5691ZM87.5691 67.5763H91.1259C92.1574 67.5629 92.9143 67.382 93.3966 67.0337C93.8788 66.6854 94.12 66.1696 94.12 65.4864C94.12 64.696 93.8454 64.1199 93.2961 63.7582C92.7468 63.3831 91.9163 63.1956 90.8043 63.1956H87.5691V67.5763Z" fill="white"/>
<rect width="58.2196" height="58.2196" transform="translate(105.904 39.8135)" fill="#1A543E"/>
<path d="M130.336 73.5237H136.345C136.224 75.493 135.681 77.2412 134.717 78.7684C133.766 80.2956 132.433 81.4879 130.718 82.3453C129.017 83.2027 126.967 83.6314 124.569 83.6314C122.694 83.6314 121.012 83.3099 119.525 82.6668C118.038 82.0104 116.766 81.0726 115.707 79.8536C114.662 78.6345 113.865 77.1609 113.316 75.4327C112.767 73.7045 112.492 71.7687 112.492 69.6253V67.5957C112.492 65.4523 112.773 63.5165 113.336 61.7883C113.912 60.0468 114.729 58.5664 115.788 57.3474C116.859 56.1283 118.139 55.1905 119.626 54.5341C121.113 53.8777 122.774 53.5494 124.609 53.5494C127.047 53.5494 129.104 53.9915 130.778 54.8757C132.466 55.7599 133.772 56.979 134.697 58.533C135.635 60.087 136.197 61.8553 136.385 63.838H130.356C130.289 62.6591 130.055 61.6611 129.653 60.8439C129.251 60.0133 128.642 59.3903 127.824 58.975C127.021 58.5464 125.949 58.332 124.609 58.332C123.604 58.332 122.727 58.5196 121.977 58.8947C121.227 59.2698 120.597 59.8391 120.088 60.6027C119.579 61.3663 119.197 62.3309 118.942 63.4964C118.701 64.6485 118.581 66.0015 118.581 67.5555V69.6253C118.581 71.1391 118.695 72.4721 118.922 73.6242C119.15 74.7629 119.498 75.7274 119.967 76.5178C120.45 77.2948 121.066 77.8843 121.816 78.2862C122.58 78.6747 123.497 78.8689 124.569 78.8689C125.828 78.8689 126.867 78.668 127.684 78.2661C128.501 77.8642 129.124 77.268 129.553 76.4776C129.995 75.6872 130.256 74.7026 130.336 73.5237ZM149.949 83.6314C148.261 83.6314 146.747 83.3635 145.407 82.8276C144.068 82.2783 142.929 81.5214 141.991 80.5569C141.067 79.5923 140.357 78.4737 139.861 77.201C139.366 75.915 139.118 74.5485 139.118 73.1017V72.2979C139.118 70.6501 139.352 69.143 139.821 67.7766C140.29 66.4101 140.96 65.2245 141.83 64.2198C142.715 63.2151 143.786 62.4447 145.046 61.9089C146.305 61.3596 147.725 61.085 149.306 61.085C150.846 61.085 152.213 61.3395 153.405 61.8486C154.597 62.3577 155.595 63.0811 156.399 64.0188C157.216 64.9566 157.833 66.0819 158.248 67.3948C158.663 68.6942 158.871 70.1411 158.871 71.7353V74.1466H141.589V70.2884H153.184V69.8463C153.184 69.0425 153.037 68.3258 152.742 67.6962C152.461 67.0532 152.032 66.5441 151.456 66.169C150.88 65.7939 150.143 65.6063 149.245 65.6063C148.482 65.6063 147.825 65.7738 147.276 66.1087C146.727 66.4436 146.278 66.9125 145.93 67.5153C145.595 68.1182 145.34 68.8282 145.166 69.6454C145.005 70.4492 144.925 71.3334 144.925 72.2979V73.1017C144.925 73.9725 145.046 74.7763 145.287 75.5131C145.541 76.2499 145.896 76.8862 146.352 77.4221C146.821 77.958 147.383 78.3732 148.04 78.668C148.71 78.9627 149.467 79.1101 150.31 79.1101C151.355 79.1101 152.327 78.9091 153.224 78.5072C154.135 78.0919 154.919 77.469 155.575 76.6384L158.389 79.6928C157.933 80.3492 157.31 80.9789 156.52 81.5817C155.743 82.1846 154.805 82.6802 153.707 83.0687C152.608 83.4438 151.355 83.6314 149.949 83.6314Z" fill="white"/>
<path d="M13.2652 120.471V116.934H24.7796V120.471L22.2476 121.074V125.736H29.4014V121.074L26.8895 120.471V116.934H29.4014H35.2691H38.4039V120.471L35.2691 121.074V134.557L38.4039 135.16V138.677H26.8895V135.16L29.4014 134.557V130.237H22.2476V134.557L24.7796 135.16V138.677H13.2652V135.16L16.4 134.557V121.074L13.2652 120.471ZM51.6865 139.099C48.5517 139.099 46.0466 138.094 44.1711 136.085C42.2956 134.075 41.3578 131.523 41.3578 128.428V127.625C41.3578 124.396 42.242 121.737 44.0103 119.647C45.7921 117.557 48.1766 116.519 51.1641 116.532C54.0979 116.532 56.3753 117.416 57.9963 119.185C59.6173 120.953 60.4278 123.344 60.4278 126.359V129.554H47.4465L47.4063 129.674C47.5135 131.108 47.9891 132.287 48.8331 133.211C49.6904 134.135 50.8492 134.598 52.3095 134.598C53.6089 134.598 54.6874 134.47 55.5447 134.216C56.4021 133.948 57.3399 133.532 58.358 132.97L59.9455 136.587C59.0479 137.297 57.8824 137.893 56.449 138.375C55.029 138.858 53.4415 139.099 51.6865 139.099ZM51.1641 121.054C50.0789 121.054 49.2216 121.469 48.5919 122.299C47.9623 123.13 47.5738 124.222 47.4264 125.575L47.4867 125.675H54.6807V125.153C54.6807 123.907 54.3859 122.916 53.7965 122.179C53.2204 121.429 52.343 121.054 51.1641 121.054ZM95.855 116.934V124.349H91.3537L91.1126 121.415H87.395V134.557L90.5097 135.16V138.677H78.3926V135.16L81.5072 134.557V121.415H77.8701L77.649 124.349H73.1478V116.934H95.855ZM110.243 135.16L113.076 134.557V131.061H109.54L105.3 138.677H98.8893V135.16L101.542 134.758L104.154 130.096C102.828 129.507 101.81 128.696 101.1 127.665C100.39 126.633 100.035 125.461 100.035 124.148C100.035 122.032 100.872 120.303 102.547 118.964C104.234 117.611 106.499 116.934 109.339 116.934H118.924H122.039V120.471L118.924 121.074V134.557L122.039 135.16V138.677H110.243V135.16ZM105.882 124.309C105.882 125.059 106.17 125.716 106.746 126.278C107.336 126.828 108.166 127.102 109.238 127.102H113.076V121.415H109.339C108.24 121.415 107.389 121.71 106.787 122.299C106.184 122.889 105.882 123.559 105.882 124.309ZM136.587 135.16L139.099 134.557V130.538H136.547L132.367 138.677H124.249V135.16L127.223 134.718L131.825 127.022L129.293 123.083C128.971 122.588 128.589 122.192 128.147 121.898C127.705 121.603 127.283 121.455 126.881 121.455C126.6 121.455 126.399 121.476 126.279 121.516C126.158 121.543 125.917 121.603 125.555 121.697L124.57 117.637C125.093 117.316 125.622 117.061 126.158 116.874C126.694 116.686 127.303 116.593 127.987 116.593C129.326 116.593 130.452 116.914 131.362 117.557C132.273 118.187 133.124 119.131 133.915 120.39L136.808 125.213H139.099V121.074L136.587 120.471V116.934H147.479V120.471L144.947 121.074V125.213H147.298L150.191 120.39C150.968 119.131 151.812 118.187 152.723 117.557C153.634 116.914 154.766 116.593 156.119 116.593C156.789 116.593 157.392 116.686 157.928 116.874C158.464 117.061 159 117.316 159.535 117.637L158.551 121.697C158.176 121.603 157.928 121.543 157.807 121.516C157.687 121.476 157.492 121.455 157.225 121.455C156.809 121.455 156.381 121.603 155.938 121.898C155.496 122.192 155.121 122.588 154.813 123.083L152.281 127.022L156.843 134.718L159.837 135.16V138.677H151.719L147.559 130.538H144.947V134.557L147.479 135.16V138.677H136.587V135.16Z" fill="white"/>
<rect width="58.2196" height="58.2196" transform="translate(163.569 98.0332)" fill="#1A543E"/>
<path d="M177.029 112.192V141.45H171.001V112.192H177.029ZM194.271 112.192L183.058 129.373H175.683L174.92 124.008H179.843L186.956 112.192H194.271ZM188.062 141.45L179.863 128.368L184.043 124.068L195.215 141.45H188.062ZM195.738 130.8V130.378C195.738 128.784 195.966 127.317 196.421 125.977C196.876 124.624 197.54 123.452 198.41 122.461C199.281 121.469 200.353 120.699 201.626 120.15C202.898 119.587 204.358 119.306 206.006 119.306C207.654 119.306 209.121 119.587 210.407 120.15C211.693 120.699 212.771 121.469 213.642 122.461C214.526 123.452 215.196 124.624 215.652 125.977C216.107 127.317 216.335 128.784 216.335 130.378V130.8C216.335 132.381 216.107 133.848 215.652 135.201C215.196 136.54 214.526 137.713 213.642 138.717C212.771 139.709 211.7 140.479 210.427 141.028C209.154 141.577 207.694 141.852 206.046 141.852C204.399 141.852 202.932 141.577 201.646 141.028C200.373 140.479 199.295 139.709 198.41 138.717C197.54 137.713 196.876 136.54 196.421 135.201C195.966 133.848 195.738 132.381 195.738 130.8ZM201.525 130.378V130.8C201.525 131.711 201.605 132.562 201.766 133.352C201.927 134.142 202.182 134.839 202.53 135.442C202.892 136.031 203.36 136.493 203.936 136.828C204.513 137.163 205.216 137.331 206.046 137.331C206.85 137.331 207.54 137.163 208.116 136.828C208.692 136.493 209.154 136.031 209.503 135.442C209.851 134.839 210.106 134.142 210.266 133.352C210.44 132.562 210.528 131.711 210.528 130.8V130.378C210.528 129.494 210.44 128.663 210.266 127.886C210.106 127.096 209.844 126.399 209.483 125.796C209.134 125.18 208.672 124.698 208.096 124.35C207.52 124.001 206.823 123.827 206.006 123.827C205.189 123.827 204.492 124.001 203.916 124.35C203.354 124.698 202.892 125.18 202.53 125.796C202.182 126.399 201.927 127.096 201.766 127.886C201.605 128.663 201.525 129.494 201.525 130.378Z" fill="white"/>
</svg>
